<svg xmlns="http://www.w3.org/2000/svg" viewBox="0 0 3 2" role="img" aria-hidden="true"><rect width="3" height="2" fill="#de2910"/><polygon points="0.5,0.35 0.57,0.56 0.79,0.56 0.61,0.69 0.69,0.9 0.5,0.77 0.31,0.9 0.39,0.69 0.21,0.56 0.43,0.56" fill="#ffde00"/><polygon points="0.95,0.12 0.97,0.18 1.03,0.18 0.98,0.22 1,0.28 0.95,0.24 0.9,0.28 0.92,0.22 0.87,0.18 0.93,0.18" fill="#ffde00"/><polygon points="1.1,0.28 1.12,0.34 1.18,0.34 1.13,0.38 1.15,0.44 1.1,0.4 1.05,0.44 1.07,0.38 1.02,0.34 1.08,0.34" fill="#ffde00"/><polygon points="1.1,0.48 1.12,0.54 1.18,0.54 1.13,0.58 1.15,0.64 1.1,0.6 1.05,0.64 1.07,0.58 1.02,0.54 1.08,0.54" fill="#ffde00"/><polygon points="0.95,0.64 0.97,0.7 1.03,0.7 0.98,0.74 1,0.8 0.95,0.76 0.9,0.8 0.92,0.74 0.87,0.7 0.93,0.7" fill="#ffde00"/></svg>
